<!-- icon666.com - MILLIONS vector ICONS FREE --><svg id="Layer_1" enable-background="new 0 0 492 492" viewBox="0 0 492 492" xmlns="http://www.w3.org/2000/svg" xmlns:xlink="http://www.w3.org/1999/xlink"><linearGradient id="SVGID_1_" gradientUnits="userSpaceOnUse" x1="99.93" x2="391.064" y1="152.083" y2="443.216"><stop offset="0" stop-color="#00dbde"/><stop offset="1" stop-color="#fc00ff"/></linearGradient><path d="m118.71 436.86h254.57v24.14h-254.57zm259.67-131.22c-.67-.74-1.7-1.2-2.7-1.2h-259.36c-1 0-2.03.46-2.7 1.2-.44.49-.65 1.02-.6 1.55l12.12 119.4h241.7l12.12-119.4c.06-.53-.13-1.06-.58-1.55zm-132.38 86.66c-14.77 0-26.78-12.02-26.78-26.78 0-14.77 12.01-26.79 26.78-26.79s26.78 12.02 26.78 26.79c0 14.76-12.01 26.78-26.78 26.78zm108.06-98.12h-102.93v-17.22l17.71 10.3c.8.47 1.69.7 2.58.7 1.29 0 2.58-.48 3.55-1.43l30.46-29.16c20.58 4.64 38.34 17.94 48.63 36.81zm-40.22-198.18c-1.48.91-2.43 2.55-2.43 4.36 0 10.72-.99 19.1-2.32 25.55-2.8-20.7-8.92-33.92-18.27-39.38-3.43-2-6.89-2.7-9.95-2.7-3.39 0-6.28.85-8.1 1.74-28.78 11.04-44.54 7.2-51.37 3.91-12.17-5.85-20.28-3.07-24.93.3-9 6.52-12.84 20.81-14.01 35.34-.81-6.26-1.21-13.39-1.15-21.21.02-2.1.13-3.75.22-4.94.15-2.24.42-5.98-3.39-7.4-.32-.11-.62-.21-.9-.27.26-10.99 3.04-19.32 8.29-24.81 7.2-7.51 16.7-7.19 17.07-7.17 1.5.09 2.97-.48 4-1.57s1.55-2.58 1.4-4.07c-1.17-11.24 12.82-18.74 23-22.68-.24 3.68.3 6.78.42 7.46.23 1.21.88 2.26 1.78 3 .89.74 2.04 1.17 3.27 1.17 2.47 0 4.59-1.76 5.04-4.19.83-4.43 13.24-6.07 27.81-5.37-1.83 2.15-3.1 4.34-3.84 6.08-.62 1.47-.51 3.14.28 4.53.78 1.38 2.17 2.32 3.74 2.55 20.07 2.85 33.76 14.42 40.69 34.4 1.86 5.38 2.98 10.7 3.65 15.37zm-13.33 53.87c0 30.6-12.8 50.04-29.02 59.4-7.46 4.32-15.66 6.5-23.66 6.65-8.57.16-17.45-1.97-25.49-6.58-15.48-8.87-27.84-26.92-28.91-55.41 0-.04 0-.08-.01-.12 0-.11-.02-.24-.03-.35 0-.04-.01-.07-.01-.11-2.79-21.59-.56-48.25 9.09-55.24 1.3-.94 5.26-3.8 14.47.64 10.2 4.9 28.84 8.23 59.75-3.68.18-.07.3-.12.48-.22.16-.08 4.23-2.01 8.6.64 4.95 3 13.33 13.55 14.65 50.52-.01.12-.01.26 0 .39.02.56.04 1.14.06 1.7v.05c.02.57.03 1.15.03 1.72zm-8.1 105.73-21.76 20.83-14.75-8.57 19.54-12.33c.01 0 15.87.02 16.97.07zm-23.57-33.6v25.57l-22.75 14.34-21.05-14.24v-25.61c6.88 2.72 14.26 4.14 21.84 4.14.38 0 .76 0 1.14-.01 6.96-.13 14.04-1.51 20.82-4.19zm-22.84 127c9.1 0 16.52 7.41 16.52 16.53 0 9.1-7.41 16.52-16.52 16.52-9.1 0-16.52-7.41-16.52-16.52 0-9.12 7.42-16.53 16.52-16.53zm-5.13-72.05v17.22h-102.93c10.29-18.87 28.05-32.17 48.63-36.82l30.46 29.16c.98.94 2.26 1.43 3.55 1.43.88 0 1.78-.23 2.58-.7zm-4.52-9.25-15.01 8.72-21.76-20.83c1.11-.05 18.74-.07 18.74-.07z" fill="url(#SVGID_1_)"/></svg>